<svg width="41" height="31" viewBox="0 0 41 31" fill="none" xmlns="http://www.w3.org/2000/svg">
<path d="M34.3639 2.52738C31.7703 1.33697 29.0332 0.488156 26.2211 0.00218419C26.1955 -0.00269543 26.1691 0.000648947 26.1455 0.011736C26.1219 0.022823 26.1024 0.0410848 26.0899 0.0639083C25.7165 0.740707 25.3775 1.43592 25.0742 2.14688C22.0431 1.68656 18.96 1.68656 15.929 2.14688C15.6243 1.43415 15.2805 0.738768 14.8992 0.0639083C14.8861 0.0415626 14.8666 0.0237033 14.8431 0.0126849C14.8197 0.00166661 14.7935 -0.00199436 14.7679 0.00218419C11.9567 0.487377 9.22051 1.33623 6.62827 2.52738C6.60594 2.53676 6.5871 2.55287 6.57436 2.57347C1.38882 10.3217 -0.0315993 17.8793 0.665327 25.3416C0.667318 25.36 0.67298 25.3777 0.681973 25.3938C0.690966 25.4099 0.703108 25.4241 0.717676 25.4354C3.7373 27.6722 7.11505 29.3797 10.7067 30.485C10.732 30.4926 10.7591 30.4922 10.7842 30.484C10.8094 30.4757 10.8314 30.46 10.8473 30.4389C11.6185 29.389 12.3019 28.2773 12.8905 27.1152C12.8985 27.0992 12.9031 27.0818 12.9039 27.0639C12.9047 27.0461 12.9017 27.0283 12.8951 27.0117C12.8885 26.9951 12.8785 26.9801 12.8657 26.9676C12.853 26.9551 12.8377 26.9455 12.8209 26.9394C11.7432 26.5277 10.6997 26.0314 9.70037 25.4549C9.68224 25.4442 9.66701 25.4293 9.65603 25.4113C9.64505 25.3934 9.63866 25.373 9.63742 25.352C9.63619 25.331 9.64014 25.31 9.64894 25.2909C9.65774 25.2718 9.67111 25.2551 9.68787 25.2424C9.89726 25.0861 10.1074 24.9221 10.3075 24.7564C10.3252 24.7418 10.3467 24.7325 10.3695 24.7295C10.3922 24.7264 10.4154 24.7298 10.4364 24.7392C16.9829 27.7285 24.071 27.7285 30.5402 24.7392C30.5613 24.7291 30.5849 24.7252 30.6081 24.728C30.6313 24.7308 30.6533 24.7401 30.6715 24.7549C30.8715 24.9197 31.0816 25.0853 31.2965 25.2424C31.3133 25.255 31.3268 25.2715 31.3357 25.2906C31.3447 25.3096 31.3488 25.3306 31.3477 25.3516C31.3466 25.3726 31.3404 25.393 31.3295 25.411C31.3187 25.429 31.3036 25.4441 31.2856 25.4549C30.2875 26.0369 29.2421 26.5335 28.1603 26.9394C28.1435 26.9458 28.1282 26.9556 28.1154 26.9683C28.1026 26.981 28.0927 26.9963 28.0863 27.0132C28.0798 27.03 28.0771 27.048 28.0781 27.066C28.0792 27.084 28.084 27.1016 28.0924 27.1175C28.6908 28.2733 29.3731 29.3837 30.1339 30.4397C30.1494 30.4614 30.1713 30.4777 30.1965 30.4863C30.2218 30.4948 30.2491 30.4952 30.2746 30.4873C33.8711 29.3853 37.2532 27.6776 40.2753 25.4377C40.2901 25.427 40.3024 25.4132 40.3115 25.3973C40.3205 25.3814 40.326 25.3637 40.3276 25.3455C41.1621 16.7167 38.9307 9.22086 34.4131 2.5766C34.403 2.55491 34.3856 2.53747 34.3639 2.52738ZM13.8671 20.7983C11.8958 20.7983 10.2731 18.9888 10.2731 16.7667C10.2731 14.5447 11.8654 12.7352 13.8671 12.7352C15.8852 12.7352 17.4939 14.5603 17.4611 16.7667C17.4627 18.9888 15.8696 20.7983 13.8671 20.7983ZM27.1595 20.7983C25.1882 20.7983 23.5655 18.9888 23.5655 16.7667C23.5655 14.5447 25.1578 12.7352 27.1595 12.7352C29.1776 12.7352 30.7863 14.5603 30.7535 16.7667C30.7543 18.9888 29.1776 20.7983 27.1595 20.7983Z" fill="white"/>
</svg>
