<svg width="41" height="40" viewBox="0 0 41 40" fill="none" xmlns="http://www.w3.org/2000/svg">
<g clip-path="url(#clip0_103_113)">
<path fill-rule="evenodd" clip-rule="evenodd" d="M20.5004 0.833374C15.7525 0.835837 11.1602 2.51747 7.54478 5.57758C3.92934 8.63769 1.5265 12.8767 0.765902 17.5367C0.00530452 22.1967 0.936539 26.9737 3.39311 31.0137C5.84969 35.0536 9.67139 38.093 14.1749 39.5883C15.1684 39.7727 15.5427 39.1569 15.5427 38.6334C15.5427 38.1098 15.5228 36.5917 15.5162 34.9321C9.95232 36.134 8.77664 32.5842 8.77664 32.5842C7.8692 30.2791 6.55772 29.6732 6.55772 29.6732C4.74285 28.4416 6.69352 28.4647 6.69352 28.4647C8.70378 28.6063 9.76025 30.5162 9.76025 30.5162C11.542 33.5556 14.4398 32.6764 15.5791 32.1627C15.7579 30.8751 16.2779 29.9992 16.8508 29.502C12.4064 29.0014 7.73673 27.2957 7.73673 19.6757C7.70918 17.6996 8.4467 15.7885 9.79668 14.3378C9.59135 13.8373 8.90579 11.8154 9.99206 9.06909C9.99206 9.06909 11.6712 8.53563 15.493 11.1074C18.7711 10.2161 22.2298 10.2161 25.5079 11.1074C29.3264 8.53563 31.0022 9.06909 31.0022 9.06909C32.0917 11.8088 31.4062 13.8307 31.2009 14.3378C32.5551 15.7887 33.2942 17.7031 33.2641 19.6823C33.2641 27.3187 28.5845 29.0014 24.1335 29.4921C24.8488 30.1112 25.488 31.3197 25.488 33.1769C25.488 35.8376 25.4648 37.9781 25.4648 38.6334C25.4648 39.1635 25.8258 39.7826 26.8392 39.5883C31.3432 38.0928 35.1653 35.0529 37.6219 31.0123C40.0784 26.9716 41.0091 22.1939 40.2477 17.5335C39.4862 12.873 37.0822 8.63396 33.4655 5.57438C29.8489 2.5148 25.2556 0.834276 20.507 0.833374H20.5004Z" fill="white"/>
<path d="M8.07406 29.3867C8.031 29.4855 7.87204 29.5151 7.74287 29.4459C7.61371 29.3768 7.51768 29.2484 7.56404 29.1463C7.61041 29.0442 7.76606 29.0179 7.89523 29.087C8.02439 29.1562 8.12373 29.2879 8.07406 29.3867Z" fill="white"/>
<path d="M8.88548 30.2857C8.81689 30.32 8.73843 30.3296 8.66351 30.3128C8.5886 30.296 8.5219 30.2538 8.47482 30.1935C8.34566 30.0552 8.31915 29.8642 8.4185 29.7786C8.51786 29.693 8.69671 29.7325 8.82587 29.8708C8.95503 30.0091 8.98483 30.2001 8.88548 30.2857Z" fill="white"/>
<path d="M9.67375 31.4283C9.55121 31.5139 9.34255 31.4283 9.22664 31.257C9.19459 31.2263 9.1691 31.1895 9.15169 31.1487C9.13428 31.108 9.12529 31.0642 9.12529 31.0199C9.12529 30.9757 9.13428 30.9319 9.15169 30.8911C9.1691 30.8504 9.19459 30.8136 9.22664 30.7828C9.34918 30.7005 9.55783 30.7828 9.67375 30.9508C9.78966 31.1187 9.79297 31.3426 9.67375 31.4283Z" fill="white"/>
<path d="M10.7434 32.5347C10.6341 32.6566 10.4122 32.6237 10.2301 32.459C10.0479 32.2944 10.0049 32.0704 10.1142 31.9519C10.2235 31.8333 10.4454 31.8663 10.6341 32.0276C10.8229 32.189 10.8593 32.4162 10.7434 32.5347Z" fill="white"/>
<path d="M12.2436 33.1802C12.194 33.3349 11.9687 33.4041 11.7435 33.3382C11.5183 33.2724 11.3693 33.088 11.4124 32.9299C11.4554 32.7718 11.6839 32.6994 11.9124 32.7718C12.141 32.8443 12.2867 33.0188 12.2436 33.1802Z" fill="white"/>
<path d="M13.8797 33.2922C13.8797 33.4535 13.6943 33.5918 13.4558 33.5951C13.2174 33.5984 13.022 33.4667 13.022 33.3053C13.022 33.144 13.2074 33.0057 13.4459 33.0024C13.6843 32.9991 13.8797 33.1275 13.8797 33.2922Z" fill="white"/>
<path d="M15.4032 33.0386C15.433 33.2 15.2674 33.3679 15.0289 33.4074C14.7905 33.4469 14.5818 33.3514 14.552 33.1934C14.5222 33.0353 14.6944 32.8641 14.9263 32.8213C15.1581 32.7785 15.3733 32.8773 15.4032 33.0386Z" fill="white"/>
</g>
<defs>
<clipPath id="clip0_103_113">
<rect width="40" height="40" fill="white" transform="translate(0.5)"/>
</clipPath>
</defs>
</svg>
