<svg width="41" height="34" viewBox="0 0 41 34" fill="none" xmlns="http://www.w3.org/2000/svg">
<path d="M13.0792 33.2511C28.1736 33.2511 36.4296 20.7455 36.4296 9.9007C36.4296 9.5455 36.4296 9.19191 36.4056 8.83991C38.0117 7.67816 39.3982 6.23971 40.5 4.5919C39.0023 5.25591 37.4134 5.69116 35.7864 5.8831C37.4997 4.85759 38.7819 3.24441 39.3944 1.3439C37.7835 2.29992 36.0211 2.97361 34.1832 3.3359C32.9459 2.0202 31.3094 1.14897 29.527 0.857045C27.7446 0.565117 25.9157 0.868762 24.3233 1.72099C22.7309 2.57322 21.4637 3.92653 20.7179 5.57149C19.9721 7.21644 19.7892 9.06135 20.1976 10.8207C16.9348 10.657 13.7429 9.80909 10.8291 8.33191C7.91526 6.85473 5.34461 4.78134 3.284 2.2463C2.23455 4.05296 1.91312 6.19168 2.38517 8.22701C2.85721 10.2623 4.08724 12.0412 5.8248 13.2015C4.51872 13.1632 3.24108 12.8109 2.1 12.1743V12.2783C2.10052 14.1731 2.75642 16.0093 3.95645 17.4756C5.15648 18.9419 6.82677 19.9479 8.684 20.3231C7.4758 20.6527 6.20812 20.7008 4.9784 20.4639C5.50302 22.0944 6.52405 23.5203 7.89873 24.5421C9.27342 25.564 10.933 26.1307 12.6456 26.1631C10.9441 27.5006 8.99552 28.4894 6.91146 29.0731C4.82739 29.6568 2.64869 29.8238 0.5 29.5647C4.25306 31.9731 8.61987 33.2506 13.0792 33.2447" fill="white"/>
</svg>
