<svg width="18" height="23" viewBox="0 0 18 23" fill="none" xmlns="http://www.w3.org/2000/svg">
<path d="M8.11001 22.5C7.99406 22.4999 7.87901 22.4796 7.77001 22.44C7.55976 22.363 7.38143 22.2177 7.26357 22.0273C7.14572 21.8369 7.09517 21.6125 7.12001 21.39L7.89001 14.3H2.00001C1.81834 14.3003 1.64003 14.2511 1.48423 14.1576C1.32842 14.0642 1.20101 13.9301 1.11568 13.7697C1.03035 13.6093 0.990322 13.4287 0.999894 13.2473C1.00947 13.0659 1.06828 12.8905 1.17001 12.74L9.06001 0.940006C9.1848 0.755344 9.3677 0.61766 9.57967 0.548815C9.79164 0.479969 10.0205 0.483908 10.23 0.560006C10.4314 0.634769 10.6033 0.77239 10.7204 0.952496C10.8375 1.1326 10.8934 1.34562 10.88 1.56001L10.11 8.70001H16C16.1817 8.69973 16.36 8.74895 16.5158 8.84238C16.6716 8.93581 16.799 9.06992 16.8843 9.2303C16.9697 9.39068 17.0097 9.57128 17.0001 9.75269C16.9906 9.93411 16.9317 10.1095 16.83 10.26L8.94001 22.06C8.84828 22.1957 8.72462 22.3068 8.5799 22.3835C8.43517 22.4603 8.27382 22.5003 8.11001 22.5V22.5Z" fill="white"/>
</svg>
