<svg width="48" height="48" viewBox="0 0 48 48" fill="none" xmlns="http://www.w3.org/2000/svg">
<path d="M29.4144 12.4062C29.4991 12.2274 29.547 12.0335 29.5553 11.8359C29.5636 11.6383 29.5322 11.4411 29.4628 11.2559C29.3935 11.0706 29.2876 10.9012 29.1516 10.7577C29.0155 10.6142 28.852 10.4994 28.6707 10.4203C28.4895 10.3412 28.2942 10.2992 28.0965 10.297C27.8987 10.2947 27.7025 10.3322 27.5195 10.4072C27.3365 10.4823 27.1704 10.5933 27.0312 10.7337C26.8919 10.8741 26.7822 11.041 26.7087 11.2246L16.3702 34.8554C16.2855 35.0341 16.2376 35.228 16.2293 35.4256C16.221 35.6232 16.2524 35.8205 16.3218 36.0057C16.3911 36.1909 16.497 36.3603 16.6331 36.5038C16.7691 36.6474 16.9326 36.7621 17.1139 36.8412C17.2951 36.9204 17.4904 36.9623 17.6882 36.9646C17.8859 36.9668 18.0821 36.9293 18.2651 36.8543C18.4481 36.7793 18.6142 36.6683 18.7535 36.5279C18.8927 36.3875 19.0024 36.2205 19.0759 36.0369L29.4144 12.4062ZM14.338 16.6774C14.4755 16.8146 14.5846 16.9776 14.6591 17.157C14.7335 17.3365 14.7719 17.5288 14.7719 17.7231C14.7719 17.9173 14.7335 18.1097 14.6591 18.2891C14.5846 18.4686 14.4755 18.6315 14.338 18.7687L9.47298 23.6308L14.338 28.4928C14.6153 28.7701 14.7711 29.1463 14.7711 29.5385C14.7711 29.9307 14.6153 30.3068 14.338 30.5841C14.0606 30.8615 13.6845 31.0173 13.2923 31.0173C12.9001 31.0173 12.524 30.8615 12.2466 30.5841L6.33895 24.6764C6.20141 24.5392 6.09229 24.3763 6.01783 24.1968C5.94338 24.0174 5.90505 23.825 5.90505 23.6308C5.90505 23.4365 5.94338 23.2441 6.01783 23.0647C6.09229 22.8853 6.20141 22.7223 6.33895 22.5851L12.2466 16.6774C12.3838 16.5399 12.5468 16.4308 12.7263 16.3563C12.9057 16.2818 13.098 16.2435 13.2923 16.2435C13.4866 16.2435 13.6789 16.2818 13.8584 16.3563C14.0378 16.4308 14.2008 16.5399 14.338 16.6774ZM32.9236 18.7687C32.6462 18.4914 32.4904 18.1153 32.4904 17.7231C32.4904 17.3309 32.6462 16.9547 32.9236 16.6774C33.2009 16.4001 33.577 16.2443 33.9692 16.2443C34.3614 16.2443 34.7376 16.4001 35.0149 16.6774L40.9226 22.5851C41.0601 22.7223 41.1693 22.8853 41.2437 23.0647C41.3182 23.2441 41.3565 23.4365 41.3565 23.6308C41.3565 23.825 41.3182 24.0174 41.2437 24.1968C41.1693 24.3763 41.0601 24.5392 40.9226 24.6764L35.0149 30.5841C34.7376 30.8615 34.3614 31.0173 33.9692 31.0173C33.577 31.0173 33.2009 30.8615 32.9236 30.5841C32.6462 30.3068 32.4904 29.9307 32.4904 29.5385C32.4904 29.1463 32.6462 28.7701 32.9236 28.4928L37.7886 23.6308L32.9236 18.7687ZM23.6308 0C17.3635 0 11.3529 2.48966 6.92129 6.92129C2.48966 11.3529 0 17.3635 0 23.6308C0 29.898 2.48966 35.9086 6.92129 40.3402C11.3529 44.7719 17.3635 47.2615 23.6308 47.2615C29.898 47.2615 35.9086 44.7719 40.3402 40.3402C44.7719 35.9086 47.2615 29.898 47.2615 23.6308C47.2615 17.3635 44.7719 11.3529 40.3402 6.92129C35.9086 2.48966 29.898 0 23.6308 0ZM2.95385 23.6308C2.95385 20.9154 3.48867 18.2267 4.52778 15.7181C5.5669 13.2094 7.08995 10.93 9.00998 9.00998C10.93 7.08995 13.2094 5.5669 15.7181 4.52778C18.2267 3.48867 20.9154 2.95385 23.6308 2.95385C26.3461 2.95385 29.0348 3.48867 31.5435 4.52778C34.0521 5.5669 36.3315 7.08995 38.2516 9.00998C40.1716 10.93 41.6946 13.2094 42.7338 15.7181C43.7729 18.2267 44.3077 20.9154 44.3077 23.6308C44.3077 29.1146 42.1292 34.3739 38.2516 38.2516C34.3739 42.1292 29.1146 44.3077 23.6308 44.3077C18.1469 44.3077 12.8877 42.1292 9.00998 38.2516C5.1323 34.3739 2.95385 29.1146 2.95385 23.6308Z" fill="white"/>
</svg>
