<svg width="48" height="48" viewBox="0 0 48 48" fill="none" xmlns="http://www.w3.org/2000/svg">
<path d="M15.06 42.96C11.7704 41.4106 8.94006 39.0326 6.84681 36.0592C4.75356 33.0859 3.46928 29.6194 3.12 26H0.12C1.14 38.32 11.44 48 24.02 48L25.34 47.94L17.72 40.32L15.06 42.96ZM16.84 29.92C16.46 29.92 16.1 29.86 15.8 29.76C15.5013 29.6608 15.2281 29.4969 15 29.28C14.78 29.08 14.6 28.84 14.48 28.54C14.36 28.26 14.3 27.94 14.3 27.6H11.7C11.7 28.32 11.84 28.96 12.12 29.5C12.4 30.04 12.78 30.5 13.24 30.88C13.72 31.24 14.26 31.52 14.88 31.7C15.48 31.9 16.12 32 16.8 32C17.54 32 18.24 31.9 18.86 31.7C19.5 31.5 20.06 31.2 20.52 30.82C20.98 30.44 21.36 29.96 21.62 29.38C21.88 28.8 22.02 28.16 22.02 27.44C22.02 27.06 21.98 26.68 21.88 26.32C21.7851 25.9566 21.6296 25.6117 21.42 25.3C21.22 24.98 20.94 24.7 20.62 24.44C20.28 24.18 19.88 23.98 19.4 23.82C20.1229 23.4979 20.74 22.9779 21.18 22.32C21.38 22.02 21.52 21.72 21.62 21.4C21.72 21.08 21.76 20.76 21.76 20.44C21.76 19.72 21.64 19.08 21.4 18.52C21.16 17.96 20.82 17.5 20.38 17.14C19.98 16.76 19.44 16.48 18.84 16.28C18.22 16.1 17.54 16 16.8 16C16.08 16 15.42 16.1 14.8 16.32C14.2 16.54 13.66 16.84 13.22 17.22C12.8 17.6 12.46 18.04 12.2 18.56C11.96 19.08 11.84 19.64 11.84 20.26H14.44C14.44 19.92 14.5 19.62 14.62 19.36C14.74 19.1 14.9 18.86 15.12 18.68C15.34 18.5 15.58 18.34 15.88 18.24C16.18 18.14 16.48 18.08 16.84 18.08C17.64 18.08 18.24 18.28 18.62 18.7C19 19.1 19.2 19.68 19.2 20.42C19.2 20.78 19.14 21.1 19.04 21.4C18.94 21.7 18.76 21.94 18.54 22.14C18.32 22.34 18.04 22.5 17.72 22.62C17.4 22.74 17 22.8 16.56 22.8H15.02V24.86H16.56C17 24.86 17.4 24.9 17.76 25C18.12 25.1 18.42 25.26 18.66 25.46C18.9 25.68 19.1 25.94 19.24 26.26C19.38 26.58 19.44 26.96 19.44 27.4C19.44 28.22 19.2 28.84 18.74 29.26C18.28 29.72 17.64 29.92 16.84 29.92ZM33.94 18.08C33.3 17.42 32.54 16.9 31.66 16.54C30.78 16.18 29.8 16 28.72 16H24V32H28.6C29.7 32 30.72 31.82 31.62 31.46C32.52 31.1 33.3 30.6 33.94 29.94C34.58 29.28 35.08 28.48 35.42 27.56C35.76 26.62 35.94 25.58 35.94 24.42V23.62C35.94 22.46 35.76 21.42 35.42 20.48C35.08 19.54 34.58 18.74 33.94 18.08ZM33.16 24.4C33.16 25.24 33.06 25.98 32.88 26.66C32.68 27.32 32.4 27.9 32.02 28.36C31.64 28.82 31.16 29.18 30.6 29.42C30.02 29.66 29.36 29.78 28.62 29.78H26.8V18.24H28.74C30.18 18.24 31.28 18.7 32.02 19.62C32.78 20.54 33.16 21.86 33.16 23.6V24.4ZM24.02 0L22.7 0.06L30.32 7.68L32.98 5.02C39.52 8.12 44.2 14.46 44.9 21.98H47.9C46.9 9.68 36.6 0 24.02 0Z" fill="white"/>
</svg>
