<svg width="44" height="44" viewBox="0 0 44 44" fill="none" xmlns="http://www.w3.org/2000/svg">
<path d="M16 21.9372V8C16 4.68629 18.6863 2 22 2C25.3137 2 28 4.68629 28 8V10.0057" stroke="white" stroke-width="4" stroke-linecap="round"/>
<path d="M28 22.0034V35.9999C28 39.3136 25.3137 41.9999 22 41.9999C18.6863 41.9999 16 39.3136 16 35.9999V33.9699" stroke="white" stroke-width="4" stroke-linecap="round"/>
<path d="M22 28H7.98415C4.67919 28 2 25.3137 2 22C2 18.6863 4.67919 16 7.98415 16H9.9886" stroke="white" stroke-width="4" stroke-linecap="round"/>
<path d="M22 16H35.9888C39.3087 16 42 18.6863 42 22C42 25.3137 39.3087 28 35.9888 28H34.0663" stroke="white" stroke-width="4" stroke-linecap="round"/>
</svg>
