<svg width="86" height="87" viewBox="0 0 86 87" fill="none" xmlns="http://www.w3.org/2000/svg">
<path d="M42.8508 74.4368C59.7052 74.4368 73.3683 60.721 73.3683 43.8017C73.3683 26.8824 59.7052 13.1666 42.8508 13.1666C25.9965 13.1666 12.3334 26.8824 12.3334 43.8017C12.3334 60.721 25.9965 74.4368 42.8508 74.4368Z" fill="#5760E4"/>
<path d="M54.0916 33.8348C52.0166 32.8926 49.8272 32.2204 47.5778 31.835C47.5573 31.8311 47.5361 31.8338 47.5173 31.8426C47.4984 31.8514 47.4828 31.8659 47.4727 31.8839C47.1737 32.4201 46.9027 32.9711 46.6608 33.5348C44.2356 33.1695 41.7686 33.1695 39.3434 33.5348C39.0999 32.9698 38.8247 32.4186 38.5191 31.8839C38.5089 31.8658 38.493 31.8515 38.4738 31.8431C38.4544 31.837 38.4335 31.837 38.414 31.8431C36.165 32.227 33.976 32.8993 31.9023 33.8429C31.8844 33.8505 31.8693 33.8633 31.859 33.8797C27.7109 40.0179 26.5755 46.0051 27.1319 51.9168C27.1335 51.9313 27.1385 51.9452 27.1463 51.9576C27.1529 51.9702 27.162 51.9813 27.1731 51.9902C29.5888 53.7622 32.291 55.1147 35.1644 55.9899C35.1845 55.996 35.206 55.996 35.2262 55.9899C35.2466 55.984 35.2646 55.9718 35.2777 55.9552C35.8936 55.1223 36.4401 54.2413 36.9118 53.3207C36.9183 53.3081 36.9218 53.2941 36.9221 53.2799C36.9241 53.2664 36.9241 53.2526 36.9221 53.2391C36.9158 53.2263 36.9074 53.2146 36.8974 53.2044C36.8876 53.1944 36.8756 53.1867 36.8623 53.182C35.9997 52.8563 35.1646 52.4633 34.3648 52.0066C34.3507 51.9977 34.3387 51.9859 34.3298 51.9719C34.321 51.9577 34.3161 51.9415 34.3154 51.9249C34.3122 51.9088 34.3122 51.8921 34.3154 51.876C34.3234 51.8608 34.3346 51.8476 34.3483 51.8372C34.5152 51.7148 34.6822 51.5842 34.8429 51.4536C34.8567 51.4412 34.8739 51.4334 34.8923 51.4311C34.9098 51.426 34.9284 51.426 34.9459 51.4311C40.1842 53.7982 45.8531 53.7982 51.0192 51.4311C51.0374 51.4262 51.0566 51.4262 51.0748 51.4311C51.093 51.4327 51.1103 51.4398 51.1243 51.4515C51.285 51.5821 51.454 51.7127 51.625 51.8372C51.6387 51.8471 51.6494 51.8605 51.6559 51.876C51.664 51.8907 51.6683 51.9072 51.6683 51.9239C51.6683 51.9407 51.664 51.9572 51.6559 51.9719C51.6475 51.9863 51.6355 51.9983 51.6209 52.0066C50.8224 52.4669 49.9862 52.8601 49.1213 53.182C49.1075 53.187 49.0949 53.1946 49.0842 53.2044C49.0736 53.2145 49.0658 53.2272 49.0615 53.2411C49.0574 53.2544 49.0574 53.2687 49.0615 53.282C49.0585 53.2954 49.0585 53.3093 49.0615 53.3228C49.5397 54.2391 50.0859 55.119 50.6956 55.9552C50.7077 55.9723 50.7251 55.9852 50.7451 55.9919C50.7652 55.998 50.7868 55.998 50.8069 55.9919C53.6889 55.1227 56.3994 53.7714 58.8209 51.9964C58.8325 51.9874 58.8423 51.9763 58.8497 51.9637C58.856 51.9508 58.8602 51.9371 58.8621 51.9229C59.5297 45.0888 57.7452 39.1506 54.1225 33.8858C54.1184 33.8658 54.1075 33.8478 54.0916 33.8348V33.8348ZM37.6949 48.3232C36.1184 48.3232 34.8099 46.8948 34.8099 45.1297C34.8099 43.3645 36.0834 41.9361 37.6949 41.9361C39.3063 41.9361 40.5963 43.3829 40.5798 45.1297C40.5633 46.8764 39.296 48.3232 37.6949 48.3232ZM48.3279 48.3232C46.7515 48.3232 45.443 46.8948 45.443 45.1297C45.443 43.3645 46.7165 41.9361 48.3279 41.9361C49.9394 41.9361 51.2293 43.3829 51.2026 45.1297C51.1758 46.8764 49.9435 48.3232 48.3279 48.3232Z" fill="white"/>
<path d="M65.8932 74.715L63.8975 76.0947L62.9874 75.9263L61.4245 73.6577L61.5899 72.7457L63.5857 71.3632L65.8932 74.715ZM62.082 73.0099L61.9894 73.5112L63.3371 75.4622L63.8346 75.5535L65.1585 74.6403L63.4059 72.0882L62.082 73.0099Z" fill="white"/>
<path d="M61.8319 75.9926L61.3689 76.2753L59.9102 73.7745L60.3732 73.4919L61.8319 75.9926ZM62.2338 76.506L62.3783 76.7555L62.3109 77.0387L62.0455 77.1941L61.7628 77.1144L61.6155 76.8649L61.6858 76.5817L61.9483 76.4262L62.2338 76.506Z" fill="white"/>
<path d="M59.5722 74.5587L59.7337 74.8819L59.2509 75.122L59.1545 74.9292L58.8945 74.8467L57.9824 75.3044L57.8924 75.5649L58.0652 75.9079L58.331 76.0018L59.4434 75.4367L60.0993 75.653L60.3827 76.2455L60.1632 76.9223L58.9067 77.5522L58.2283 77.3275L58.0668 77.0043L58.5496 76.7642L58.6459 76.9569L58.906 77.0395L59.7531 76.6185L59.8432 76.358L59.6816 76.0348L59.4159 75.9438L58.3119 76.5089L57.6447 76.2841L57.3416 75.6831L57.5582 75.0063L58.8881 74.3396L59.5722 74.5587Z" fill="white"/>
<path d="M56.8418 75.9544L57.5025 77.6154L57.1955 78.3318L55.8428 78.8681L55.1219 78.5555L54.9687 78.17L55.4686 77.9724L55.5565 78.1935L55.8958 78.3413L56.791 77.9856L56.9346 77.6486L56.4128 76.3192L56.0764 76.1714L55.1812 76.5271L55.0347 76.8641L55.1226 77.088L54.6228 77.2856L54.4725 76.9029L54.7823 76.1781L56.1322 75.6417L56.8418 75.9544Z" fill="white"/>
<path d="M53.9528 77.0778L54.4525 78.7783L54.0777 79.469L52.5977 79.9004L51.9133 79.5198L51.4136 77.8193L51.7856 77.1286L53.2628 76.6972L53.9528 77.0778ZM52.1563 77.5115L51.9788 77.8286L52.3819 79.2117L52.7043 79.3849L53.7126 79.103L53.8902 78.7832L53.4842 77.4001L53.1618 77.2297L52.1563 77.5115Z" fill="white"/>
<path d="M51.1826 80.2555L50.6769 80.3596L50.5745 79.8665L50.1911 80.4609L49.4369 80.6156L49.3543 80.1452L49.9898 80.0158L50.4522 79.3025L50.0824 77.5229L50.6106 77.4132L51.1826 80.2555Z" fill="white"/>
<path d="M48.7075 78.3821L48.9332 80.1446L48.4538 80.7672L47.3379 80.9072L46.8655 80.5864L47.0741 82.2072L46.5401 82.2744L46.0116 78.1573L46.523 78.0929L46.5858 78.5888L47.0173 78.0228L48.0852 77.8883L48.7075 78.3821ZM47.1621 78.4876L46.6798 79.1243L46.797 80.0509L47.3626 80.4313L48.1565 80.3333L48.3849 80.0333L48.2049 78.6165L47.922 78.3838L47.1621 78.4876Z" fill="white"/>
<path d="M42.1747 82.3477L39.7529 82.1941L39.1388 81.4991L39.3044 78.7514L39.9958 78.1376L42.4176 78.2911L42.1747 82.3477ZM40.2282 78.6393L39.8473 78.9759L39.7037 81.3413L40.0404 81.7242L41.6484 81.8256L41.8333 78.7436L40.2282 78.6393Z" fill="white"/>
<path d="M38.1969 80.832L37.6628 80.7575L38.0543 77.8939L38.5885 77.9683L38.1969 80.832ZM38.1978 81.4835L38.1587 81.7668L37.9301 81.9478L37.6248 81.9049L37.4522 81.6695L37.4913 81.3862L37.7199 81.2081L38.0252 81.251L38.1978 81.4835Z" fill="white"/>
<path d="M37.2977 78.3066L37.2247 78.6578L36.6961 78.5494L36.7411 78.3398L36.5853 78.1129L35.5848 77.9047L35.3561 78.0545L35.2775 78.4284L35.4304 78.6694L36.6515 78.9204L37.0309 79.4876L36.9018 80.1361L36.3118 80.5291L34.9325 80.2439L34.5389 79.6455L34.6119 79.2943L35.1376 79.4027L35.0955 79.6123L35.2513 79.8392L36.1698 80.0303L36.4013 79.8833L36.4743 79.5293L36.3214 79.2911L35.1117 79.0401L34.7209 78.4503L34.8556 77.7904L35.4428 77.3974L36.904 77.6828L37.2977 78.3066Z" fill="white"/>
<path d="M34.2876 77.7073L33.7842 79.4064L33.0981 79.7765L31.7045 79.361L31.3277 78.6663L31.4458 78.2699L31.9631 78.4264L31.8956 78.653L32.0713 78.979L32.9928 79.2636L33.3175 79.0884L33.7196 77.7178L33.544 77.3946L32.6225 77.11L32.2978 77.2852L32.2331 77.5118L31.7158 77.358L31.8311 76.9644L32.5228 76.5886L33.9164 77.007L34.2876 77.7073Z" fill="white"/>
<path d="M31.3138 76.7966L30.6577 78.4445L29.9348 78.7523L28.5043 78.1837L28.1981 77.458L28.8569 75.8101L29.5742 75.4995L31.0048 76.0681L31.3138 76.7966ZM29.6173 76.0237L29.2869 76.1507L28.7519 77.4871L28.9022 77.8216L29.8747 78.2139L30.2108 78.0756L30.7429 76.7392L30.5955 76.4047L29.6173 76.0237Z" fill="white"/>
<path d="M27.1725 77.5641L26.7088 77.3312L26.9342 76.881L26.262 77.1096L25.5721 76.7658L25.7806 76.344L26.3631 76.6281L27.1651 76.3459L27.9681 74.7209L28.4517 74.9624L27.1725 77.5641Z" fill="white"/>
<path d="M26.3743 74.5742L25.4694 76.0971L24.7068 76.2915L23.7396 75.7235L23.5665 75.1793L22.7208 76.5776L22.257 76.2937L24.3853 72.7441L24.8293 73.0082L24.5728 73.4385L25.2564 73.2666L26.1754 73.809L26.3743 74.5742ZM25.0903 73.7027L24.3163 73.8999L23.8399 74.7038L24.0443 75.3472L24.7315 75.7589L25.0987 75.6659L25.8203 74.4459L25.7266 74.0775L25.0903 73.7027Z" fill="white"/>
<path d="M17.567 72.6043L15.8212 70.902L15.8199 69.9728L17.7272 67.9923L18.654 67.9767L20.3969 69.6789L17.567 72.6043ZM18.488 68.5232L17.9794 68.5225L16.3373 70.22L16.338 70.7299L17.4953 71.8647L19.6368 69.6495L18.488 68.5232Z" fill="white"/>
<path d="M15.516 68.859L15.1481 68.4533L17.3041 66.5384L17.689 66.9441L15.516 68.859ZM15.0928 69.3513L14.8784 69.5408L14.5958 69.5404L14.392 69.3078L14.4114 69.0245L14.6287 68.8322L14.9113 68.8326L15.115 69.0652L15.0928 69.3513Z" fill="white"/>
<path d="M16.4703 66.3559L16.1881 66.5765L15.8569 66.1511L16.0262 66.0182L16.0569 65.7349L15.4257 64.9351L15.1431 64.8979L14.8411 65.1326L14.8019 65.4158L15.569 66.4028L15.4824 67.0883L14.9772 67.4898L14.2735 67.4038L13.4073 66.2893L13.4967 65.5811L13.7789 65.3606L14.1101 65.786L13.9408 65.9189L13.9101 66.2021L14.4763 66.948L14.7589 66.9852L15.0411 66.7647L15.0775 66.4814L14.3217 65.503L14.4083 64.8033L14.9389 64.3905L15.6426 64.4765L16.5569 65.6506L16.4703 66.3559Z" fill="white"/>
<path d="M14.5766 63.9479L13.0804 64.9175L12.3173 64.755L11.5272 63.53L11.69 62.7597L12.0316 62.5278L12.3148 62.9844L12.1144 63.1116L12.0386 63.4741L12.5625 64.2822L12.9242 64.3621L14.1184 63.5875L14.1942 63.225L13.6703 62.4168L13.3113 62.337L13.1109 62.467L12.8277 62.0134L13.1721 61.79L13.9409 61.9554L14.731 63.1804L14.5766 63.9479Z" fill="white"/>
<path d="M12.903 61.3166L11.3331 62.1388L10.584 61.8998L9.8672 60.5418L10.1035 59.797L11.6734 58.9748L12.4197 59.2054L13.1365 60.5747L12.903 61.3166ZM12.1207 59.6327L11.773 59.5189L10.5025 60.1857L10.3984 60.5425L10.8998 61.4668L11.2447 61.5806L12.5181 60.9138L12.6222 60.5655L12.1207 59.6327Z" fill="white"/>
<path d="M9.2409 59.2036L9.03679 58.7302L9.49991 58.5326L8.84118 58.2738L8.54066 57.5623L8.9699 57.3788L9.22505 57.9797L10.0138 58.2953L11.6828 57.5866L11.8926 58.0827L9.2409 59.2036Z" fill="white"/>
<path d="M10.5763 56.4066L8.89867 56.9708L8.1946 56.6185L7.83425 55.5528L8.0539 55.0234L6.51186 55.5425L6.33878 55.0294L10.256 53.712L10.4206 54.2023L9.94895 54.3631L10.5823 54.6756L10.9257 55.7017L10.5763 56.4066ZM10.1645 54.9102L9.44626 54.555L8.56225 54.8371L8.30317 55.46L8.55854 56.2196L8.89502 56.3872L10.2337 55.9387L10.4028 55.5989L10.1645 54.9102Z" fill="white"/>
<path d="M5.14942 49.1776L4.91714 46.755L5.50951 46.0391L8.24433 45.788L8.95438 46.3755L9.18384 48.798L5.14942 49.1776ZM8.49424 46.6864L8.10387 46.3743L5.75046 46.5919L5.42607 46.9824L5.58091 48.5918L8.64912 48.3128L8.49424 46.6864Z" fill="white"/>
<path d="M6.01666 44.9944L6.0159 44.4533L8.89794 44.4092L8.89871 44.9588L6.01666 44.9944ZM5.37256 45.0927L5.09 45.0923L4.8778 44.8937L4.87737 44.5849L5.08334 44.3783L5.3659 44.3787L5.57811 44.5802L5.57854 44.8861L5.37256 45.0927Z" fill="white"/>
<path d="M8.36292 43.7201L8.00405 43.7026L8.02872 43.1615L8.24346 43.1619L8.44381 42.9723L8.49041 41.9525L8.30928 41.7454L7.9278 41.7279L7.71615 41.9146L7.65856 43.161L7.15061 43.6249L6.48938 43.5928L6.00829 43.068L6.07411 41.6516L6.60182 41.1708L6.95787 41.1883L6.9332 41.7293L6.72128 41.729L6.52092 41.9157L6.47704 42.8562L6.66099 43.0633L7.01704 43.0808L7.2287 42.8941L7.2863 41.659L7.80554 41.1838L8.47807 41.2159L8.95916 41.7379L8.89628 43.2393L8.36292 43.7201Z" fill="white"/>
<path d="M8.48575 40.6492L6.71659 40.4059L6.24384 39.7848L6.43677 38.3403L7.0634 37.8737L7.47036 37.9281L7.39765 38.4635L7.16308 38.432L6.88084 38.6554L6.7522 39.6099L6.97582 39.8935L8.38889 40.0853L8.67113 39.8619L8.79977 38.9074L8.57615 38.6238L8.33875 38.5894L8.41146 38.0541L8.81843 38.1113L9.29682 38.7268L9.10389 40.1713L8.48575 40.6492Z" fill="white"/>
<path d="M8.91656 37.576L7.19238 37.1742L6.77608 36.505L7.11868 34.9983L7.78494 34.5885L9.51195 34.9904L9.93107 35.6539L9.58564 37.1577L8.91656 37.576ZM9.41417 35.7891L9.22159 35.4772L7.82247 35.1523L7.51475 35.3473L7.28167 36.3725L7.47142 36.6844L8.88468 37.0094L9.1924 36.8144L9.41417 35.7891Z" fill="white"/>
<path d="M7.49819 33.5908L7.6529 33.0981L8.13347 33.2518L7.80199 32.6224L8.03265 31.8861L8.48212 32.0284L8.2852 32.6486L8.68185 33.4027L10.4091 33.9547L10.2487 34.4786L7.49819 33.5908Z" fill="white"/>
<path d="M10.3305 32.3455L8.68507 31.6803L8.37606 30.9518L8.7956 29.907L9.30384 29.6499L7.79412 29.0387L7.99401 28.5262L11.8334 30.0841L11.6419 30.5626L11.1782 30.3749L11.4617 31.0241L11.0591 32.0264L10.3305 32.3455ZM10.9869 30.9299L10.6694 30.1929L9.80425 29.8432L9.20282 30.1427L8.90435 30.8873L9.05177 31.2332L10.3636 31.7648L10.7109 31.618L10.9869 30.9299Z" fill="white"/>
<path d="M10.0428 24.6847L11.3538 22.6382L12.2577 22.444L14.5683 23.9346L14.7674 24.8415L13.4592 26.8879L10.0428 24.6847ZM14.2163 24.7954L14.1083 24.2994L12.1285 23.0161L11.6342 23.1231L10.7545 24.4789L13.348 26.154L14.2163 24.7954Z" fill="white"/>
<path d="M12.7341 21.6147L12.505 21.4501L12.4594 21.1667L12.6455 20.9233L12.928 20.8869L13.16 21.0629L13.2028 21.3462L13.0194 21.5896L12.7341 21.6147ZM13.2997 21.9356L13.624 21.5055L15.9321 23.2539L15.6078 23.684L13.2997 21.9356Z" fill="white"/>
<path d="M15.9309 22.3869L15.648 22.1514L16.0176 21.7383L16.1789 21.8773L16.4614 21.8551L17.1271 21.0826L17.1098 20.7993L16.8269 20.5467L16.5443 20.5633L15.7319 21.5084L15.0453 21.5556L14.5446 21.1243L14.4899 20.4159L15.4067 19.3492L16.1187 19.2964L16.4016 19.5347L16.049 19.9422L15.8877 19.8003L15.6052 19.8254L14.993 20.5356L15.0104 20.819L15.2933 21.0545L15.5758 21.0379L16.3798 20.1041L17.0579 20.0598L17.5671 20.4996L17.6218 21.2079L16.6514 22.3398L15.9309 22.3869Z" fill="white"/>
<path d="M17.9197 20.0554L16.6746 18.7702L16.6877 17.9884L17.7289 16.9756L18.5172 16.9767L18.8002 17.2746L18.4165 17.6622L18.2495 17.492L17.8822 17.4914L17.1937 18.1619L17.1942 18.533L18.1874 19.5515L18.5548 19.552L19.2433 18.8815L19.2427 18.5104L19.0758 18.3402L19.4624 17.9639L19.7453 18.2476L19.7464 19.0352L18.7024 20.048L17.9197 20.0554Z" fill="white"/>
<path d="M20.163 17.9082L19.0506 16.5213L19.1343 15.7367L20.3338 14.7695L21.111 14.8613L22.2234 16.2482L22.1397 17.0271L20.9402 17.9943L20.163 17.9082ZM21.6562 16.8168L21.6981 16.4542L20.798 15.3198L20.4419 15.2938L19.6262 15.9527L19.5844 16.3153L20.4845 17.4497L20.8491 17.4843L21.6562 16.8168Z" fill="white"/>
<path d="M21.4995 13.9071L21.923 13.6244L22.2061 14.0441L22.3323 13.3445L22.9815 12.9035L23.2449 13.292L22.7 13.6566L22.5487 14.5063L23.5708 16.0093L23.1248 16.3118L21.4995 13.9071Z" fill="white"/>
<path d="M24.5042 14.6847L23.6176 13.1423L23.8285 12.3834L24.7997 11.8182L25.365 11.9294L24.552 10.5118L25.0207 10.2292L27.0743 13.8498L26.6282 14.1041L26.3733 13.6732L26.1906 14.3557L25.2561 14.8926L24.5042 14.6847ZM25.8849 13.9898L26.0901 13.2167L25.6228 12.4029L24.9586 12.2688L24.2668 12.6673L24.1685 13.0298L24.8738 14.2603L25.2384 14.36L25.8849 13.9898Z" fill="white"/>
<path d="M30.4907 7.9478L32.8123 7.25132L33.6295 7.69159L34.4216 10.3302L33.9989 11.1455L31.6631 11.8448L30.4907 7.9478ZM33.6028 10.754L33.8423 10.3039L33.161 8.03656L32.7142 7.79512L31.1692 8.25472L32.0607 11.2165L33.6028 10.754Z" fill="white"/>
<path d="M34.5305 7.37556L34.4679 7.09217L34.6201 6.84308L34.9196 6.77835L35.1628 6.94017L35.2254 7.22356L35.0731 7.47265L34.7709 7.53738L34.5305 7.37556ZM34.7517 7.9878L35.2771 7.87239L35.8971 10.7063L35.3717 10.8188L34.7517 7.9878Z" fill="white"/>
<path d="M36.4641 10.0498L36.4099 9.69279L36.9438 9.61139L36.9752 9.82391L37.1987 9.9857L38.2072 9.83415L38.3736 9.61624L38.3137 9.23653L38.0903 9.0634L36.8586 9.24864L36.2929 8.83989L36.1931 8.18533L36.6076 7.61931L38.0003 7.4088L38.5661 7.83455L38.6202 8.19159L38.0863 8.27016L38.0549 8.05764L37.8315 7.89867L36.9049 8.03902L36.7385 8.25692L36.7927 8.61112L37.019 8.78426L38.2365 8.60183L38.8022 9.01908L38.9049 9.68781L38.4875 10.2538L37.0157 10.4756L36.4641 10.0498Z" fill="white"/>
<path d="M39.4924 9.57249L39.3797 7.78754L39.8932 7.20466L41.3454 7.11606L41.9339 7.63816L41.9599 8.04898L41.4231 8.08222L41.4227 7.84425L41.1398 7.60021L40.1792 7.65835L39.9366 7.94131L40.0262 9.35793L40.3091 9.60197L41.2697 9.54383L41.5123 9.26088L41.4837 9.0257L42.0205 8.99529L42.0466 9.40611L41.5275 9.99748L40.0781 10.0861L39.4924 9.57249Z" fill="white"/>
<path d="M42.5891 9.40405L42.6431 7.62783L43.2074 7.09035L44.7475 7.13786L45.2823 7.70521L45.2311 9.48143L44.6668 10.0217L43.1267 9.97141L42.5891 9.40405ZM44.4344 9.55113L44.7025 9.30504L44.7457 7.8631L44.491 7.60211L43.4426 7.56663L43.1746 7.81556L43.1342 9.25467L43.3861 9.51849L44.4344 9.55113Z" fill="white"/>
<path d="M46.2056 7.24471L46.7199 7.30209L46.6641 7.80345L47.2145 7.35945L47.9804 7.44552L47.9301 7.90156L47.2745 7.84114L46.6169 8.37282L46.4301 10.18L45.896 10.1198L46.2056 7.24471Z" fill="white"/>
<path d="M47.9837 9.79127L48.3118 8.0466L48.9695 7.60275L50.0746 7.81395L50.4285 8.2649L50.7286 6.66184L51.2571 6.76457L50.4943 10.8374L49.977 10.7375L50.0668 10.2475L49.4852 10.6433L48.4282 10.452L47.9837 9.79127ZM49.4874 10.1702L50.1451 9.71783L50.3162 8.79734L49.9029 8.26415L49.1172 8.11573L48.8067 8.32777L48.5459 9.7184L48.7582 10.0303L49.4874 10.1702Z" fill="white"/>
<path d="M55.4182 8.03676L57.6799 8.92951L58.0513 9.77994L57.0518 12.3424L56.2046 12.7095L53.9429 11.8196L55.4182 8.03676ZM56.1389 12.1626L56.6048 11.9593L57.4635 9.75361L57.2594 9.28588L55.7525 8.69449L54.6263 11.5684L56.1389 12.1626Z" fill="white"/>
<path d="M58.9502 10.0872L59.0742 9.82392L59.3566 9.72517L59.6393 9.85872L59.7302 10.1421L59.6062 10.4026L59.3238 10.5042L59.041 10.3678L58.9502 10.0872ZM58.7505 10.7045L59.234 10.9404L57.9831 13.5421L57.4967 13.2978L58.7505 10.7045Z" fill="white"/>
<path d="M58.8306 13.3847L59.0081 13.0705L59.4776 13.3375L59.3733 13.5243L59.4499 13.7879L60.3379 14.2906L60.6034 14.2229L60.7922 13.8889L60.7184 13.6055L59.6353 12.9892L59.4479 12.326L59.772 11.7599L60.4556 11.5682L61.6913 12.2612L61.8844 12.9499L61.7068 13.2613L61.2374 12.9972L61.3445 12.8103L61.265 12.5439L60.4478 12.081L60.1823 12.1514L59.9962 12.4515L60.0673 12.7349L61.1418 13.3455L61.3321 14.0257L61.0023 14.6116L60.3217 14.8061L59.0237 14.0706L58.8306 13.3847Z" fill="white"/>
<path d="M61.5141 14.8814L62.5236 13.4097L63.2863 13.2691L64.4855 14.0952L64.6307 14.8716L64.3967 15.2113L63.9555 14.9047L64.0908 14.7094L64.0225 14.3439L63.2306 13.7988L62.869 13.8634L62.0625 15.0408L62.1308 15.4036L62.9228 15.9514L63.2843 15.884L63.4197 15.6887L63.8638 15.9953L63.6325 16.3349L62.8585 16.4783L61.6593 15.6494L61.5141 14.8814Z" fill="white"/>
<path d="M64.0625 16.667L65.1908 15.3031L65.9734 15.2334L67.1587 16.2266L67.2248 17.0086L66.0965 18.3697L65.3167 18.4423L64.1343 17.4519L64.0625 16.667ZM65.4262 17.9212L65.7907 17.8933L66.7103 16.7898L66.673 16.4271L65.8668 15.7517L65.5023 15.7795L64.5827 16.8831L64.62 17.2486L65.4262 17.9212Z" fill="white"/>
<path d="M68.2424 17.2083L68.613 17.5629L68.2603 17.9222L68.9667 17.9232L69.5185 18.4651L69.1884 18.799L68.7271 18.345L67.8795 18.3438L66.6098 19.6367L66.2221 19.2594L68.2424 17.2083Z" fill="white"/>
<path d="M68.0744 20.3102L69.4092 19.1449L70.1948 19.1999L70.9335 20.0508L70.9343 20.6174L72.1563 19.5511L72.5101 19.9595L69.4057 22.6805L69.052 22.289L69.4273 21.9609L68.7237 21.9118L68.0133 21.0977L68.0744 20.3102ZM69.0283 21.5298L69.8252 21.5819L70.5279 20.9653L70.527 20.291L70.0005 19.684L69.6247 19.658L68.5608 20.5886L68.533 20.9653L69.0283 21.5298Z" fill="white"/>
<path d="M75.8371 24.9078L76.9703 27.0568L76.689 27.9431L74.2665 29.2344L73.3817 28.9498L72.2484 26.798L75.8371 24.9078ZM73.7116 28.5027L74.195 28.6535L76.2816 27.5431L76.4278 27.056L75.6686 25.6385L72.9524 27.0851L73.7116 28.5027Z" fill="white"/>
<path d="M77.2072 28.7626L77.4699 28.6469L77.7526 28.7493L77.8745 29.0327L77.7675 29.3159L77.502 29.4317L77.2193 29.3293L77.0974 29.0458L77.2072 28.7626ZM76.6426 29.099L76.858 29.5951L74.2177 30.7529L73.9995 30.2568L76.6426 29.099Z" fill="white"/>
<path d="M74.9784 31.1846L75.3145 31.0604L75.5017 31.5706L75.2984 31.6411L75.1885 31.8931L75.5374 32.854L75.7834 32.9762L76.1421 32.8435L76.2661 32.5887L75.8462 31.4153L76.1279 30.7896L76.7492 30.5666L77.3939 30.8509L77.8761 32.1774L77.5747 32.8257L77.2386 32.9471L77.0542 32.4397L77.2547 32.3663L77.3674 32.1172L77.044 31.2328L76.798 31.1107L76.4591 31.2348L76.338 31.4896L76.7606 32.6518L76.4649 33.2916L75.8322 33.5202L75.1876 33.236L74.677 31.8187L74.9784 31.1846Z" fill="white"/>
<path d="M76.0506 34.07L77.7735 33.6107L78.4466 34.0026L78.8216 35.4196L78.4298 36.1018L78.0315 36.2089L77.8923 35.6846L78.1211 35.6254L78.3071 35.3055L78.0572 34.3731L77.7376 34.1885L76.3621 34.5521L76.1789 34.8719L76.426 35.8043L76.7455 35.9918L76.9743 35.9298L77.1135 36.4512L76.7181 36.5583L76.0366 36.1607L75.6588 34.7437L76.0506 34.07Z" fill="white"/>
<path d="M76.8318 37.0826L78.5805 36.8018L79.2226 37.2617L79.479 38.7834L79.025 39.4201L77.2763 39.701L76.6371 39.2496L76.3778 37.7251L76.8318 37.0826ZM77.0577 38.9244L77.3405 39.1401L78.753 38.9013L78.9617 38.6013L78.785 37.5642L78.5021 37.3485L77.0897 37.5873L76.881 37.8873L77.0577 38.9244Z" fill="white"/>
<path d="M79.6647 40.2228L79.7107 40.7385L79.2078 40.7831L79.7537 41.2371L79.8198 42.005L79.3536 42.0468L79.2962 41.398L78.6456 40.8531L76.8374 41.0064L76.7914 40.4681L79.6647 40.2228Z" fill="white"/>
<path d="M77.5261 42.4606L79.2977 42.4461L79.8636 42.9994L79.8652 44.1326L79.4928 44.5655L81.1204 44.5508L81.1211 45.0919L76.9845 45.1257L76.9838 44.6073L77.4839 44.608L76.9944 44.103L76.9928 43.0237L77.5261 42.4606ZM77.4548 44.013L78.0207 44.5804L78.9532 44.5817L79.3932 44.0753L79.3921 43.2735L79.1092 43.0068L77.6964 43.019L77.434 43.2877L77.4548 44.013Z" fill="white"/>
<path d="M80.4597 51.0092L79.9347 53.3825L79.1555 53.88L76.4732 53.2756L75.9776 52.493L76.5026 50.1168L80.4597 51.0092ZM76.5058 52.3436L76.7889 52.7746L79.0982 53.2935L79.5244 53.0108L79.8726 51.4333L76.8652 50.7576L76.5058 52.3436Z" fill="white"/>
<path d="M78.9873 54.8202L79.27 54.9056L79.4088 55.1608L79.3216 55.444L79.0618 55.5796L78.7792 55.4942L78.6375 55.239L78.7275 54.9558L78.9873 54.8202ZM78.3458 54.7173L78.1911 55.2327L75.4293 54.3789L75.5839 53.8607L78.3458 54.7173Z" fill="white"/>
<path d="M75.7271 55.2038L76.0636 55.3318L75.875 55.8358L75.6742 55.7618L75.4258 55.8777L75.0682 56.8347L75.1788 57.087L75.535 57.2235L75.7948 57.1105L76.2311 55.9411L76.858 55.6587L77.4772 55.8919L77.7606 56.5382L77.268 57.8605L76.6213 58.1429L76.2849 58.0149L76.4735 57.5109L76.6742 57.5849L76.9227 57.4691L77.2493 56.5885L77.1415 56.3362L76.8051 56.2082L76.5453 56.3212L76.1118 57.4793L75.4708 57.7617L74.8432 57.5228L74.5456 56.8793L75.0663 55.4834L75.7271 55.2038Z" fill="white"/>
<path d="M74.6744 58.0835L76.2832 58.8591L76.5442 59.5961L75.916 60.9182L75.1761 61.1778L74.8028 60.9988L75.0367 60.5119L75.2487 60.617L75.5989 60.4928L76.0131 59.6237L75.8883 59.275L74.6017 58.65L74.2544 58.7741L73.8402 59.6433L73.965 59.9919L74.1799 60.0942L73.9461 60.5812L73.5757 60.4021L73.3119 59.6595L73.9401 58.3459L74.6744 58.0835Z" fill="white"/>
<path d="M73.3164 60.8806L74.8379 61.7978L75.0311 62.563L74.2418 63.8877L73.482 64.0708L71.9605 63.1564L71.7645 62.3969L72.5538 61.0722L73.3164 60.8806ZM72.2957 62.426L72.381 62.7802L73.614 63.5214L73.9671 63.4284L74.5027 62.5283L74.4174 62.174L73.1844 61.4329L72.8313 61.523L72.2957 62.426Z" fill="white"/>
<path d="M73.4467 65.1019L73.1449 65.5236L72.7348 65.2397L72.8573 65.9397L72.4118 66.568L72.0271 66.2841L72.405 65.7549L72.2597 64.9048L70.7832 63.846L71.0962 63.4073L73.4467 65.1019Z" fill="white"/>
<path d="M70.3615 65.4121L71.7223 66.5472L71.7912 67.3348L71.0718 68.1837L70.5068 68.2708L71.7572 69.3207L71.4103 69.7339L68.239 67.0664L68.5691 66.6702L68.951 66.9909L68.8878 66.2882L69.5789 65.4619L70.3615 65.4121ZM69.3035 66.5438L69.3781 67.3428L70.0939 67.9416L70.7606 67.8433L71.2739 67.2293L71.2395 66.8553L70.1532 65.9415L69.7803 65.975L69.3035 66.5438Z" fill="white"/>
<path fill-rule="evenodd" clip-rule="evenodd" d="M42.9252 1.39901C19.6477 1.39901 0.77758 20.3419 0.77758 43.7091C0.77758 67.0763 19.6477 86.0192 42.9252 86.0192C66.2027 86.0192 85.0728 67.0763 85.0728 43.7091C85.0728 20.3419 66.2027 1.39901 42.9252 1.39901ZM0.119751 43.7091C0.119751 19.9772 19.2844 0.738647 42.9252 0.738647C66.566 0.738647 85.7306 19.9772 85.7306 43.7091C85.7306 67.441 66.566 86.6796 42.9252 86.6796C19.2844 86.6796 0.119751 67.441 0.119751 43.7091Z" fill="white"/>
</svg>
