<svg width="290" height="33" viewBox="0 0 290 33" fill="none" xmlns="http://www.w3.org/2000/svg">
<path d="M1.82267 0.944336C0.844651 0.944336 0 1.78878 0 2.76656V30.2332C0 31.211 0.844651 32.0555 1.82267 32.0555C2.84515 32.0555 3.68981 31.211 3.68981 30.2332V2.76656C3.68981 1.78878 2.84515 0.944336 1.82267 0.944336Z" fill="#5760E4"/>
<path d="M48.5505 8.32212C48.017 8.32212 47.3947 8.67767 47.0835 9.12212L39.7927 19.3888L27.2563 1.69989C26.9006 1.25545 26.3671 0.944336 25.7448 0.944336H24.8556C23.8776 0.944336 23.033 1.78878 23.033 2.76656V30.2332C23.033 31.211 23.8776 32.0555 24.8556 32.0555C25.8781 32.0555 26.7228 31.211 26.7228 30.2332V6.76657L38.4146 23.2555C39.0815 24.2332 40.504 24.2332 41.1709 23.2555L49.8842 10.9888C50.6844 9.87767 49.8842 8.36656 48.5505 8.32212V8.32212ZM54.7299 0.944336C53.7074 0.944336 52.8627 1.78878 52.8627 2.76656V30.2332C52.8627 31.211 53.7074 32.0555 54.7299 32.0555C55.7079 32.0555 56.5525 31.211 56.5525 30.2332V2.76656C56.5525 1.78878 55.7079 0.944336 54.7299 0.944336Z" fill="#5760E4"/>
<path d="M98.82 0.944336H85.3055C84.283 0.944336 83.4384 1.74434 83.4384 2.76656C83.4384 3.78878 84.283 4.63323 85.3055 4.63323H95.8415L87.5283 24.8999L86.9504 26.2332L86.4169 24.8999L77.0812 2.14433C76.77 1.38878 76.1032 0.944336 75.303 0.944336C73.9693 0.944336 73.0357 2.32211 73.5248 3.56656L84.7276 30.8555C85.0388 31.5666 85.7056 32.0555 86.5058 32.0555H87.4394C88.1951 32.0555 88.9064 31.5666 89.2176 30.8555L100.376 3.56656C100.909 2.36656 100.065 1.07767 98.82 0.944336Z" fill="#5760E4"/>
<path d="M118.074 4.63323H133.9C134.923 4.63323 135.768 3.78878 135.768 2.76656C135.768 1.78878 134.923 0.944336 133.9 0.944336H118.074C117.096 0.944336 116.252 1.78878 116.252 2.76656C116.252 3.78878 117.096 4.63323 118.074 4.63323ZM133.9 28.3666H119.941V17.7443H131.5C132.522 17.7443 133.367 16.9443 133.367 15.9221C133.367 14.8999 132.522 14.0554 131.5 14.0554H118.074C117.096 14.0554 116.252 14.8999 116.252 15.9221V30.2332C116.252 31.211 117.096 32.0555 118.074 32.0555H133.9C134.923 32.0555 135.768 31.211 135.768 30.2332C135.768 29.211 134.923 28.3666 133.9 28.3666V28.3666Z" fill="#5760E4"/>
<path d="M174.365 10.0999C174.365 5.07768 170.231 0.944336 165.163 0.944336H154.049C153.071 0.944336 152.226 1.78878 152.226 2.76656C152.226 3.78878 153.071 4.63323 154.049 4.63323H165.163C168.186 4.63323 170.675 7.07768 170.675 10.0999C170.675 13.1221 168.186 15.611 165.163 15.611H154.049C153.071 15.611 152.271 16.3666 152.226 17.3443V30.2332C152.226 31.211 153.071 32.0555 154.049 32.0555C155.071 32.0555 155.916 31.211 155.916 30.2332V19.2999H165.163C170.231 19.2999 174.365 15.1666 174.365 10.0999ZM169.43 22.811C169.119 22.2332 168.541 21.9221 167.919 21.9221C166.496 21.9221 165.652 23.4332 166.363 24.5888L170.231 31.1666C170.542 31.6999 171.12 32.0555 171.742 32.0555C173.165 32.0555 174.009 30.5444 173.298 29.3444L169.43 22.811Z" fill="#5760E4"/>
<path d="M201.848 14.5C197.225 13.0333 195.047 12.0556 195.047 9.47778C195.047 6.36666 197.492 4.18889 201.004 4.18889C203.805 4.18889 206.161 6.1 206.783 8.72222C207.005 9.52222 207.717 10.1444 208.561 10.1444C209.806 10.1444 210.651 8.98889 210.34 7.83334C209.317 3.61111 205.494 0.5 201.004 0.5C195.491 0.5 191.357 4.36666 191.357 9.47778C191.357 15.0333 196.558 16.6778 200.693 18.0111C205.449 19.5222 207.672 20.5444 207.672 23.2556C207.672 27.1222 204.382 28.8111 201.182 28.8111C198.07 28.8111 195.447 26.6333 194.824 23.7445C194.647 22.9 193.891 22.3222 193.002 22.3222C191.846 22.3222 190.957 23.4333 191.224 24.5889C192.246 29.1222 196.336 32.5 201.182 32.5C207.05 32.5 211.362 28.6333 211.362 23.2556C211.362 17.5667 206.072 15.8778 201.848 14.5V14.5Z" fill="#5760E4"/>
<path d="M230.142 4.63323H245.968C246.991 4.63323 247.835 3.78878 247.835 2.76656C247.835 1.78878 246.991 0.944336 245.968 0.944336H230.142C229.164 0.944336 228.319 1.78878 228.319 2.76656C228.319 3.78878 229.164 4.63323 230.142 4.63323ZM245.968 28.3666H232.009V17.7443H243.568C244.59 17.7443 245.435 16.9443 245.435 15.9221C245.435 14.8999 244.59 14.0554 243.568 14.0554H230.142C229.164 14.0554 228.319 14.8999 228.319 15.9221V30.2332C228.319 31.211 229.164 32.0555 230.142 32.0555H245.968C246.991 32.0555 247.835 31.211 247.835 30.2332C247.835 29.211 246.991 28.3666 245.968 28.3666V28.3666Z" fill="#5760E4"/>
<path d="M266.872 0.944336C265.894 0.944336 265.05 1.78878 265.05 2.76656V30.2332C265.05 31.211 265.894 32.0555 266.872 32.0555C267.895 32.0555 268.739 31.211 268.739 30.2332V2.76656C268.739 1.78878 267.895 0.944336 266.872 0.944336ZM274.919 0.944336H273.807C272.785 0.944336 271.94 1.78878 271.94 2.76656C271.94 3.78878 272.785 4.63323 273.807 4.63323H274.919C281.187 4.63323 286.299 9.96656 286.299 16.4999C286.299 23.0332 281.187 28.3666 274.919 28.3666H273.807C272.785 28.3666 271.94 29.211 271.94 30.2332C271.94 31.211 272.785 32.0555 273.807 32.0555H274.919C283.232 32.0555 289.989 25.0777 289.989 16.4999C289.989 7.92212 283.232 0.944336 274.919 0.944336V0.944336Z" fill="#5760E4"/>
</svg>
